<svg width="1242" height="640" viewBox="0 0 1242 640" fill="none" xmlns="http://www.w3.org/2000/svg">
  <g clip-path="url(#clip0_3_5550)">
    <path fill-rule="evenodd" clip-rule="evenodd" d="M535.287 440.635C535.287 440.635 661.872 336.728 554.642 274.076C522.306 253.398 493.9 220.803 494.882 170.019C494.882 170.019 461.579 234.225 493.125 276.08C482.584 268.052 404.431 265.348 363.454 131.484C363.454 131.484 303.32 226.42 331.631 306.79C331.631 306.79 372.143 396.718 422.486 395.247C422.486 395.247 347.246 402.086 302.585 319.596C302.894 331.308 250.857 456.412 393.407 487.459C393.407 487.459 340.079 473.727 341.885 411.74C409.781 468.707 476.88 387.536 476.88 387.536C476.88 387.536 381.412 398.31 388.834 266.189C420.914 322.048 485.197 335.076 520.744 328.486C490.472 299.078 530.691 315.736 551.716 333.381C584.271 370.447 535.279 440.638 535.279 440.638L535.287 440.635Z" fill="url(#paint0_linear_3_5550)"/>
    <path d="M402.295 443.526H445.768V461.062H424.871V472.403H445.558V489.415H425.186V517.662H402.295V443.526ZM449.432 464.948H469.489V517.662H449.432V464.948ZM459.513 441.426C460.843 441.426 462.103 441.706 463.293 442.266C464.553 442.756 465.603 443.456 466.443 444.366C467.353 445.206 468.054 446.256 468.544 447.516C469.104 448.706 469.384 449.966 469.384 451.297C469.384 452.697 469.104 453.992 468.544 455.182C468.054 456.372 467.353 457.422 466.443 458.332C465.603 459.172 464.553 459.872 463.293 460.432C462.103 460.922 460.843 461.167 459.513 461.167C458.113 461.167 456.818 460.922 455.627 460.432C454.437 459.872 453.387 459.172 452.477 458.332C451.637 457.422 450.937 456.372 450.377 455.182C449.887 453.992 449.642 452.697 449.642 451.297C449.642 449.966 449.887 448.706 450.377 447.516C450.937 446.256 451.637 445.206 452.477 444.366C453.387 443.456 454.437 442.756 455.627 442.266C456.818 441.706 458.113 441.426 459.513 441.426ZM474.971 464.948H495.028V470.408C496.708 467.818 498.423 465.998 500.173 464.948C501.923 463.828 504.024 463.268 506.474 463.268C509.974 463.268 512.774 464.318 514.875 466.418C516.975 468.518 518.025 471.318 518.025 474.819C518.025 478.179 516.94 480.944 514.77 483.114C512.669 485.214 509.939 486.264 506.579 486.264C504.409 486.264 502.449 485.774 500.698 484.794C498.948 483.814 497.793 482.519 497.233 480.909L496.918 481.119C496.218 481.469 495.763 482.029 495.553 482.799C495.343 483.569 495.238 484.829 495.238 486.58V487.315V517.662H474.971V464.948ZM547.509 477.444C544.919 477.444 542.889 478.249 541.419 479.859C539.949 481.399 539.144 483.639 539.004 486.58H556.225C556.225 483.849 555.42 481.644 553.81 479.964C552.2 478.284 550.1 477.444 547.509 477.444ZM577.542 496.975H539.004C539.144 499.636 539.949 501.806 541.419 503.486C542.889 505.096 544.849 505.901 547.299 505.901C550.38 505.901 552.55 504.571 553.81 501.911H575.862C574.252 507.651 571.101 512.062 566.411 515.142C561.72 518.152 555.665 519.657 548.244 519.657C543.624 519.657 539.494 518.992 535.853 517.662C532.213 516.402 529.133 514.582 526.613 512.202C524.092 509.821 522.132 506.916 520.732 503.486C519.402 499.986 518.737 496.065 518.737 491.725C518.737 487.455 519.402 483.569 520.732 480.069C522.062 476.569 523.987 473.593 526.508 471.143C529.028 468.693 532.038 466.803 535.538 465.473C539.109 464.143 543.099 463.478 547.509 463.478C553.11 463.478 558.185 464.563 562.736 466.733C567.356 468.903 570.786 471.878 573.026 475.659C573.937 477.199 574.672 478.634 575.232 479.964C575.862 481.294 576.317 482.694 576.597 484.164C576.947 485.564 577.192 487.14 577.332 488.89C577.472 490.64 577.542 492.74 577.542 495.19V496.975ZM649.239 451.297C650.289 452.347 651.199 453.397 651.969 454.447C652.739 455.497 653.439 456.652 654.069 457.912C654.699 459.102 655.294 460.502 655.855 462.112C656.485 463.723 657.15 465.613 657.85 467.783H633.488C632.718 465.123 631.142 463.023 628.762 461.482C626.452 459.942 623.652 459.172 620.362 459.172C615.881 459.172 612.416 460.467 609.966 463.058C607.586 465.578 606.395 469.148 606.395 473.768V488.26C606.395 492.46 607.656 495.82 610.176 498.34C612.696 500.861 616.056 502.121 620.257 502.121C624.177 502.121 627.327 501.211 629.707 499.391C632.088 497.5 633.593 494.77 634.223 491.2H619.942V476.814H659.32V478.914C659.32 485.284 658.445 490.99 656.695 496.03C654.944 501.071 652.389 505.341 649.029 508.841C645.739 512.342 641.713 515.037 636.953 516.927C632.193 518.747 626.802 519.657 620.782 519.657C614.621 519.657 609.056 518.747 604.085 516.927C599.185 515.107 595.019 512.517 591.589 509.156C588.159 505.726 585.534 501.596 583.714 496.765C581.893 491.865 580.983 486.369 580.983 480.279C580.983 474.328 581.928 468.973 583.819 464.213C585.709 459.382 588.369 455.287 591.799 451.927C595.299 448.566 599.535 445.976 604.505 444.156C609.476 442.336 615.041 441.426 621.202 441.426C627.222 441.426 632.613 442.266 637.373 443.946C642.133 445.626 646.089 448.076 649.239 451.297ZM700.412 497.71H698.837C695.897 497.71 693.516 497.78 691.696 497.92C689.946 498.06 688.546 498.305 687.496 498.656C686.516 498.936 685.851 499.356 685.501 499.916C685.221 500.406 685.081 501.106 685.081 502.016C685.081 503.416 685.606 504.501 686.656 505.271C687.776 506.041 689.316 506.426 691.276 506.426C697.367 506.426 700.412 503.836 700.412 498.656V497.71ZM700.202 486.58V483.849C700.202 479.089 697.857 476.709 693.166 476.709C688.896 476.709 686.341 478.774 685.501 482.904H665.024C665.304 478.214 666.249 474.644 667.859 472.193C669.539 469.673 672.2 467.748 675.84 466.418C678.43 465.508 680.95 464.878 683.4 464.528C685.921 464.108 688.686 463.898 691.696 463.898C703.737 463.898 711.893 466.348 716.163 471.248C716.933 472.158 717.563 473.068 718.053 473.978C718.543 474.819 718.928 475.799 719.208 476.919C719.558 477.969 719.768 479.194 719.839 480.594C719.979 481.924 720.049 483.534 720.049 485.424V517.662H700.307V512.727C699.607 513.637 698.557 514.512 697.157 515.352C695.827 516.122 694.286 516.822 692.536 517.452C690.786 518.082 688.931 518.572 686.971 518.922C685.011 519.272 683.085 519.447 681.195 519.447C675.245 519.447 670.554 518.082 667.124 515.352C663.764 512.622 662.084 508.806 662.084 503.906C662.084 500.336 662.784 497.465 664.184 495.295C665.584 493.055 667.859 491.235 671.009 489.835C673.46 488.785 676.12 487.98 678.99 487.42C681.86 486.86 684.836 486.58 687.916 486.58H700.202ZM725.8 464.948H745.857V474.188C747.537 470.828 749.847 468.238 752.787 466.418C755.728 464.598 759.018 463.688 762.658 463.688C766.299 463.688 769.239 464.493 771.479 466.103C773.789 467.643 776.029 470.408 778.2 474.399L778.935 473.348C780.965 470.268 783.45 467.923 786.39 466.313C789.331 464.633 792.481 463.793 795.841 463.793C801.442 463.793 805.887 465.648 809.177 469.358C812.537 473.068 814.218 478.039 814.218 484.269V517.662H793.846V491.725C793.846 489.065 793.321 487.175 792.271 486.054C791.291 484.864 789.646 484.269 787.335 484.269C784.815 484.269 782.995 484.934 781.875 486.264C780.755 487.525 780.195 489.66 780.195 492.67V517.662H760.033V492.46C760.033 489.38 759.508 487.21 758.458 485.949C757.408 484.619 755.658 483.954 753.207 483.954C748.307 483.954 745.857 486.51 745.857 491.62V517.662H725.8V464.948ZM847.051 477.444C844.461 477.444 842.43 478.249 840.96 479.859C839.49 481.399 838.685 483.639 838.545 486.58H855.767C855.767 483.849 854.962 481.644 853.351 479.964C851.741 478.284 849.641 477.444 847.051 477.444ZM877.083 496.975H838.545C838.685 499.636 839.49 501.806 840.96 503.486C842.43 505.096 844.391 505.901 846.841 505.901C849.921 505.901 852.091 504.571 853.351 501.911H875.403C873.793 507.651 870.643 512.062 865.952 515.142C861.262 518.152 855.207 519.657 847.786 519.657C843.166 519.657 839.035 518.992 835.395 517.662C831.755 516.402 828.674 514.582 826.154 512.202C823.634 509.821 821.674 506.916 820.274 503.486C818.944 499.986 818.278 496.065 818.278 491.725C818.278 487.455 818.944 483.569 820.274 480.069C821.604 476.569 823.529 473.593 826.049 471.143C828.569 468.693 831.58 466.803 835.08 465.473C838.65 464.143 842.64 463.478 847.051 463.478C852.651 463.478 857.727 464.563 862.277 466.733C866.898 468.903 870.328 471.878 872.568 475.659C873.478 477.199 874.213 478.634 874.773 479.964C875.403 481.294 875.858 482.694 876.138 484.164C876.488 485.564 876.733 487.14 876.873 488.89C877.013 490.64 877.083 492.74 877.083 495.19V496.975ZM883.57 512.307C882.94 511.537 882.38 510.802 881.89 510.101C881.47 509.401 881.085 508.631 880.735 507.791C880.455 506.951 880.21 506.006 880 504.956C879.79 503.906 879.615 502.646 879.475 501.176H899.111C899.321 504.676 900.862 506.426 903.732 506.426C904.852 506.426 905.727 506.111 906.357 505.481C907.057 504.781 907.407 503.941 907.407 502.961C907.407 501.981 907.022 501.176 906.252 500.546C905.482 499.846 904.187 499.216 902.367 498.656L900.267 498.13C898.376 497.57 896.801 497.08 895.541 496.66C894.281 496.24 893.161 495.855 892.181 495.505C891.271 495.085 890.431 494.665 889.661 494.245C888.961 493.825 888.191 493.3 887.35 492.67C885.53 491.41 884.13 489.8 883.15 487.84C882.17 485.809 881.68 483.569 881.68 481.119C881.68 475.659 883.675 471.388 887.665 468.308C891.656 465.158 897.116 463.583 904.047 463.583C908.527 463.583 912.483 464.178 915.913 465.368C919.413 466.488 922.108 468.133 923.998 470.303C925.189 471.633 925.994 472.963 926.414 474.293C926.834 475.624 927.114 477.514 927.254 479.964H908.457C908.037 476.814 906.602 475.239 904.152 475.239C903.032 475.239 902.122 475.519 901.422 476.079C900.792 476.639 900.477 477.374 900.477 478.284C900.477 479.474 901.002 480.454 902.052 481.224C903.172 481.924 905.237 482.694 908.247 483.534L912.238 484.584C914.828 485.354 917.033 486.054 918.853 486.685C920.673 487.315 922.178 487.98 923.368 488.68C924.559 489.38 925.504 490.15 926.204 490.99C926.974 491.76 927.604 492.67 928.094 493.72C929.074 495.89 929.564 498.13 929.564 500.441C929.564 506.601 927.394 511.327 923.053 514.617C918.713 517.837 912.448 519.447 904.257 519.447C899.496 519.447 895.366 518.852 891.866 517.662C888.366 516.402 885.6 514.617 883.57 512.307Z" fill="url(#paint1_linear_3_5550)"/>
    <g clip-path="url(#clip1_3_5550)">
      <path d="M836.621 334.368C844.107 334.368 850.183 328.292 850.183 320.805C850.183 313.319 844.107 307.243 836.621 307.243C829.134 307.243 823.059 313.319 823.059 320.805C823.059 328.292 829.134 334.368 836.621 334.368Z" fill="url(#paint2_linear_3_5550)"/>
      <path d="M660.309 198.745C652.823 198.745 646.747 204.821 646.747 212.307C646.747 219.794 652.823 225.87 660.309 225.87C667.796 225.87 673.872 219.794 673.872 212.307C673.872 204.821 667.796 198.745 660.309 198.745Z" fill="url(#paint3_linear_3_5550)"/>
      <path d="M877.308 198.745C869.821 198.745 863.746 204.821 863.746 212.307C863.746 219.794 869.821 225.87 877.308 225.87C884.794 225.87 890.87 219.794 890.87 212.307C890.87 204.821 884.794 198.745 877.308 198.745Z" fill="url(#paint4_linear_3_5550)"/>
      <path d="M836.621 361.493C829.134 361.493 823.059 367.569 823.059 375.055C823.059 382.542 829.134 388.618 836.621 388.618C844.107 388.618 850.183 382.542 850.183 375.055C850.183 367.569 844.107 361.493 836.621 361.493Z" fill="url(#paint5_linear_3_5550)"/>
      <path d="M809.497 361.494C816.983 361.494 823.059 355.418 823.059 347.931C823.059 340.445 816.983 334.369 809.497 334.369C802.01 334.369 795.935 340.445 795.935 347.931C795.935 355.418 802.01 361.494 809.497 361.494Z" fill="url(#paint6_linear_3_5550)"/>
      <path d="M863.745 361.494C871.231 361.494 877.307 355.418 877.307 347.931C877.307 340.445 871.231 334.369 863.745 334.369C856.258 334.369 850.183 340.445 850.183 347.931C850.183 355.418 856.258 361.494 863.745 361.494Z" fill="url(#paint7_linear_3_5550)"/>
      <path d="M673.872 361.493H687.434V375.055C687.434 382.545 693.506 388.617 700.996 388.617C708.487 388.617 714.558 382.545 714.558 375.055V361.493H728.121C735.612 361.493 741.684 355.421 741.684 347.93C741.684 340.44 735.612 334.368 728.121 334.368H714.559V320.805C714.559 313.315 708.487 307.243 700.997 307.243C693.506 307.243 687.434 313.315 687.434 320.805V334.368H673.872C666.382 334.368 660.31 340.44 660.31 347.93C660.309 355.421 666.382 361.493 673.872 361.493Z" fill="url(#paint8_linear_3_5550)"/>
      <path d="M917.996 130.932H619.622C612.132 130.932 606.06 137.004 606.06 144.495V280.119V415.743C606.06 423.233 612.132 429.305 619.622 429.305H917.995C925.486 429.305 931.558 423.233 931.558 415.743V280.119V144.495C931.558 137.004 925.486 130.932 917.996 130.932ZM633.185 158.057H904.434V266.557H633.185V158.057ZM904.433 402.181H633.185V293.681H904.434V402.181H904.433Z" fill="url(#paint9_linear_3_5550)"/>
      <path d="M836.621 171.619H700.996C693.506 171.619 687.434 177.691 687.434 185.181V239.432C687.434 246.922 693.506 252.994 700.996 252.994H836.62C844.11 252.994 850.182 246.922 850.182 239.432V185.182C850.183 177.692 844.111 171.619 836.621 171.619ZM823.058 225.869H714.559V198.744H823.058V225.869H823.058Z" fill="url(#paint10_linear_3_5550)"/>
    </g>
  </g>
<defs>
  <linearGradient id="paint0_linear_3_5550" x1="363.902" y1="131.326" x2="601.222" y2="442.565" gradientUnits="userSpaceOnUse">
    <stop stop-color="#A42C2C"/>
    <stop offset="1" stop-color="#142166" stop-opacity="0.5"/>
  </linearGradient>
  <linearGradient id="paint1_linear_3_5550" x1="565.283" y1="456.794" x2="1335.67" y2="579.845" gradientUnits="userSpaceOnUse">
    <stop stop-color="#6A6087"/>
    <stop offset="1" stop-color="#8C5E5E" stop-opacity="0"/>
  </linearGradient>
  <linearGradient id="paint2_linear_3_5550" x1="823.305" y1="308.611" x2="854.629" y2="334.323" gradientUnits="userSpaceOnUse">
    <stop stop-color="#A03033"/>
    <stop offset="0.743802" stop-color="#6A6087"/>
  </linearGradient>
  <linearGradient id="paint3_linear_3_5550" x1="646.994" y1="200.113" x2="678.317" y2="225.825" gradientUnits="userSpaceOnUse">
    <stop stop-color="#A03033"/>
    <stop offset="0.743802" stop-color="#6A6087"/>
  </linearGradient>
  <linearGradient id="paint4_linear_3_5550" x1="863.992" y1="200.113" x2="895.316" y2="225.825" gradientUnits="userSpaceOnUse">
    <stop stop-color="#A03033"/>
    <stop offset="0.743802" stop-color="#6A6087"/>
  </linearGradient>
  <linearGradient id="paint5_linear_3_5550" x1="823.305" y1="362.861" x2="854.629" y2="388.573" gradientUnits="userSpaceOnUse">
    <stop stop-color="#A03033"/>
    <stop offset="0.743802" stop-color="#6A6087"/>
  </linearGradient>
  <linearGradient id="paint6_linear_3_5550" x1="796.181" y1="335.737" x2="827.505" y2="361.449" gradientUnits="userSpaceOnUse">
    <stop stop-color="#A03033"/>
    <stop offset="0.743802" stop-color="#6A6087"/>
  </linearGradient>
  <linearGradient id="paint7_linear_3_5550" x1="850.429" y1="335.737" x2="881.753" y2="361.449" gradientUnits="userSpaceOnUse">
    <stop stop-color="#A03033"/>
    <stop offset="0.743802" stop-color="#6A6087"/>
  </linearGradient>
  <linearGradient id="paint8_linear_3_5550" x1="661.049" y1="311.346" x2="755.021" y2="388.483" gradientUnits="userSpaceOnUse">
    <stop stop-color="#A03033"/>
    <stop offset="0.743802" stop-color="#6A6087"/>
  </linearGradient>
  <linearGradient id="paint9_linear_3_5550" x1="609.019" y1="145.974" x2="958.19" y2="458.65" gradientUnits="userSpaceOnUse">
    <stop stop-color="#A03033"/>
    <stop offset="0.743802" stop-color="#6A6087"/>
  </linearGradient>
  <linearGradient id="paint10_linear_3_5550" x1="688.913" y1="175.722" x2="774.046" y2="315.484" gradientUnits="userSpaceOnUse">
    <stop stop-color="#A03033"/>
    <stop offset="0.743802" stop-color="#6A6087"/>
  </linearGradient>
  <clipPath id="clip0_3_5550">
    <rect width="764.014" height="480" fill="white" transform="translate(239 80)"/>
  </clipPath>
  <clipPath id="clip1_3_5550">
    <rect width="325.499" height="325.499" fill="white" transform="translate(606.059 117.37)"/>
  </clipPath>
</defs>
</svg>
